<?xml version="1.0" encoding="UTF-8"?>
<!DOCTYPE svg PUBLIC "-//W3C//DTD SVG 1.1//EN" "http://www.w3.org/Graphics/SVG/1.1/DTD/svg11.dtd">
<!-- Creator: CorelDRAW -->
<svg xmlns="http://www.w3.org/2000/svg" xml:space="preserve" width="81.9266mm" height="81.9266mm" version="1.1" style="shape-rendering:geometricPrecision; text-rendering:geometricPrecision; image-rendering:optimizeQuality; fill-rule:evenodd; clip-rule:evenodd"
viewBox="0 0 11079.33 11079.33"
 xmlns:xlink="http://www.w3.org/1999/xlink"
 xmlns:xodm="http://www.corel.com/coreldraw/odm/2003">
 <defs>
  <style type="text/css">
   <![CDATA[
    .fil0 {fill:#FFB89E}
    .fil1 {fill:white}
   ]]>
  </style>
 </defs>
 <g id="Capa_x0020_1">
  <metadata id="CorelCorpID_0Corel-Layer"/>
  <g id="_2009170702688">
   <rect class="fil0" width="11079.33" height="11079.33" rx="1717.48" ry="1717.48"/>
   <path class="fil1" d="M1523.46 6642.42c0.43,102.39 13.27,208.94 82.98,281.56 102.05,106.31 137.29,87.98 554.4,92 685.53,6.61 721.19,5.18 727.58,6.17 7.69,1.19 8.95,-1.11 26.49,4.95 55.38,19.12 149.19,110.31 162.12,201.3 1.5,10.66 -0.93,2.7 2.23,605.47 0.19,33.81 2.52,379.92 3.18,447.55 94.41,-90.36 275.81,-270.23 317.92,-312.12 526.17,-523.59 557.29,-555.14 588.8,-586.31 299.21,-295.89 345.07,-337.01 384.43,-350.49 36.59,-12.52 331.37,-11.72 621.42,-12.41l753.33 -1.77 992.99 -0.58 1823.74 -2.58c80,-0.12 524.68,-2.47 529.39,-2.53 440.85,-4.23 446.53,-86.24 447.8,-575.75l2.33 -913.16 0.11 -1202.91c0,-26.21 63.83,-225.82 281.6,-202.73 120.9,12.82 216.82,149.48 216.85,212.95l0.64 1238.7 -1.73 928.25c-0.46,240.38 14.62,440.73 -140.58,670.06 -189.95,280.69 -503.59,336.26 -509.01,336.27l-4833.75 8.67 -766.88 765.4 -565.57 562.2c-227.15,225.76 -281.79,319.99 -449.53,287.79 -118.49,-22.75 -180.71,-144.04 -186.34,-161.82 -2.31,-7.3 -4.35,-15.51 -4.38,-24.99l-4.54 -1430.39c-36.64,-0.68 -119.52,-2.57 -433.78,-5.06 -446.15,-3.53 -458.82,-1.37 -471.31,-2.87 -96.9,-11.67 -373.86,-111.18 -530.22,-368.88 -120.43,-198.5 -106.52,-334.46 -107.13,-363.05 -1.7,-80.28 -5.15,-358.51 3.8,-384.32 70.12,-202.11 399.19,-202.19 471.92,-1 20.2,55.88 8.26,154.09 8.72,256.45zm4193.31 4.11c-291.84,88.88 -629.52,-32.51 -792.61,-383.03l-1163.06 -4.68c-14.44,-0.05 -24.34,-4.06 -26.86,-4.94 -61.49,-21.27 -218.97,-142.54 -145.74,-335.69 71.12,-187.62 312.27,-149.85 461.14,-151.8 22.73,-0.3 375.06,-3.11 511.44,-4.08 73.24,-0.54 170.9,-1.23 366.23,-2.64 176.63,-374.34 500.45,-412.4 657.35,-400.39 392.3,30.01 532.85,347.86 557.33,400.39 605.57,4.35 500.94,3.54 713.36,5.34 433.28,3.65 558.53,-12.13 623.85,149.02 73.34,180.98 -66.75,313.03 -144.3,339.86 -1.72,0.6 -12.28,4.92 -26.86,4.98l-1163.07 4.68c-94.49,200.65 -253.11,329.66 -428.21,382.98zm-22.87 -644.49c-13.97,-202.42 -316.73,-190.26 -319.14,8.36 -2.16,181.62 232.81,222.81 304.64,77.54 3.43,-6.95 17.32,-44.95 14.5,-85.9zm-4171.02 -208.95c-14.65,331.2 -543.73,302.36 -484.7,-52.44 49.43,-297.1 498.08,-250.6 484.7,52.44zm5199.08 -1707.35c177.67,45.9 343.1,171.69 448.55,388.91 66.06,3 329.81,-0.99 327.21,252.48 -2.58,251.62 -268.98,244.8 -327.25,247.44 -50.02,101.47 -218.31,419.35 -627.41,408.44 -218.92,-5.86 -460.89,-119.48 -589.91,-402.5 -154.29,-4.18 -213.67,-5.56 -890.4,-7.57 -1379.04,-4.14 -1281.49,-1.22 -1292.86,-2.87 -88.74,-12.91 -197.97,-109.08 -198.43,-245 -0.55,-162.88 150.69,-245.75 198.43,-245.84l927.25 -1.88 726.04 -2.1c80.09,-0.24 341.56,-1.42 529.93,-6.53 142.67,-314.04 472.73,-459.47 768.85,-382.97zm-0.39 632.55c0.95,-180.27 -266.7,-209.13 -316.29,-40.46 -5.72,19.45 -5.36,40.19 -5.36,43.1 -0.43,198.92 281.42,222.34 317.73,35.43 2.6,-13.36 3.85,-26.05 3.91,-38.07zm3324.54 -1908.54c1.47,91.97 -2.49,194.85 -23,245.88 -4.56,11.35 -22.35,80.22 -111.19,131.45 -160.25,92.39 -308.65,-20 -347.2,-112.92 -42.67,-102.81 10.51,-371.96 -62.34,-496.99 -99.28,-170.34 -257.85,-139.87 -536.34,-140.82l-857.9 -2.87 -2573.55 -2.31 -2573.59 2.27 -857.88 2.87c-274.57,0.92 -398.32,-26.6 -505.26,98.71 -79.37,93 -70.3,166.33 -71.11,477.35l-2.26 913.15 -0.04 1202.91c0,40.22 -61.06,170.87 -198.46,201.36 -173.82,38.6 -293.16,-130.45 -293.03,-205.16l4.81 -2540.94c0.08,-44.03 73.58,-265.84 223.34,-415.6 152.75,-152.75 380.06,-223.26 415.71,-223.26l7715.47 0c3.22,0 143.04,10.2 330.89,149.91 212.06,157.74 283.34,371.99 313.11,534.48 1.37,7.45 8.3,88.55 9.8,180.54zm-5654.82 -10.59c294.51,-82.52 631.91,50.32 782.59,382.82l2125.53 8.45c47.12,0.18 221.01,85.63 194.35,281.44 -34.19,251.1 -308.61,210.51 -505.97,211.1l-802.38 2.39 -1009.45 0.2c-268.56,562.21 -983.13,525.73 -1219.06,2.11 -143.85,-6.26 -284.89,2.35 -356.8,-133.99 -44.98,-85.24 -39.22,-197.48 29.86,-280.04 67.73,-80.94 141.79,-82.76 327.11,-89.96 96.25,-207.96 257.53,-335.02 434.23,-384.53zm14.62 639.34c0.14,19.18 1.38,35.78 8.82,55.35 55.39,145.58 290.9,135.76 310.57,-38.37 25.86,-228.83 -321.01,-247.28 -319.38,-16.99zm5637.79 234.81c0.6,296.08 -499.87,329.82 -497.11,-8.25 2.69,-329.22 496.46,-309.93 497.11,8.25z"/>
  </g>
 </g>
</svg>
