<?xml version="1.0" encoding="UTF-8"?>
<!DOCTYPE svg PUBLIC "-//W3C//DTD SVG 1.1//EN" "http://www.w3.org/Graphics/SVG/1.1/DTD/svg11.dtd">
<!-- Creator: CorelDRAW -->
<svg xmlns="http://www.w3.org/2000/svg" xml:space="preserve" width="81.9266mm" height="81.9266mm" version="1.1" style="shape-rendering:geometricPrecision; text-rendering:geometricPrecision; image-rendering:optimizeQuality; fill-rule:evenodd; clip-rule:evenodd"
viewBox="0 0 2784.74 2784.74"
 xmlns:xlink="http://www.w3.org/1999/xlink"
 xmlns:xodm="http://www.corel.com/coreldraw/odm/2003">
 <defs>
  <style type="text/css">
   <![CDATA[
    .fil0 {fill:#E5BAFF}
    .fil1 {fill:white}
   ]]>
  </style>
 </defs>
 <g id="Capa_x0020_1">
  <metadata id="CorelCorpID_0Corel-Layer"/>
  <g id="_2009586890464">
   <rect class="fil0" width="2784.74" height="2784.74" rx="431.68" ry="431.68"/>
   <path class="fil1" d="M2350.43 1449.85l-123.61 124.96 -173.66 174.69 -170.75 171.29c-32.48,32.59 -108.53,109.02 -228.58,228.89l-176.51 176.22 -128.31 127.49c-64.16,63.74 -78.14,82.26 -155.88,96.47 -29.01,5.31 -2.22,0.83 -36.27,-3.62 -60.19,-7.87 -95.44,-50.24 -110.95,-65.5 -0.7,-0.69 -76.99,-76.22 -78.38,-77.61l-231.46 -230.7 -231.22 -231.62c-0.7,-0.7 -77.54,-78.19 -78.23,-78.9 -52.32,-53.04 -73.97,-77.04 -71.56,-159.26 1.96,-66.64 56.49,-112.39 93.53,-149.67l127.49 -128.31 176.24 -176.53 214.61 -214.37 185.58 -184.98 174.69 -173.67 124.93 -123.58c40.8,-40.35 60.27,-65.6 118.83,-74.68 20.85,-3.23 41.24,-1.78 95.23,7.32 17.04,-65.32 46.5,-121.67 84.1,-164.19 48.77,-55.15 111.18,-87.54 178.7,-87.54 79.3,0 150.28,44.16 200.92,115.55 43.88,61.86 72.56,144.62 77.44,236.15 50.74,16.2 101.91,52.93 122.56,163.93 1.14,6.16 1.33,7.71 62.44,346.42 22.24,123.24 21.56,119.46 21.94,121.62 19.89,111.86 16.16,91.25 13.42,105.66 -13.41,70.53 -31.44,81.75 -77.25,128.06zm-617.75 -953.89l405.8 73.35c-6.66,-71.15 -29.69,-134.53 -63.52,-182.21 -38.14,-53.78 -89.83,-87.04 -146,-87.04 -47.44,0 -92.29,23.89 -128.27,64.57 -29.86,33.76 -53.59,78.74 -68.01,131.33zm472.07 174.92c-9.02,79.23 -35.97,150.48 -74.87,205.32 -13.74,19.37 -28.97,36.72 -45.46,51.75 14.65,61.71 -16.23,128.96 -71.46,159.96 -83.86,47.07 -183.5,3.52 -212.59,-81.75 -16.04,-47 -8.01,-136.84 72.83,-177.34 5.39,-2.7 11.1,-5.18 17.16,-7.42 54.26,-20.03 120.95,-5.3 162.1,43.39 7.93,-8.46 15.46,-17.72 22.52,-27.67 34.43,-48.54 57.69,-113.34 63.86,-186.05 -12.47,-2.24 -27.31,-4.82 -45.3,-8.14 -3.49,-0.65 -375.51,-68.12 -392.99,-71.25 -141.98,-25.45 -126.4,-28.34 -203.74,48.3l-125.97 124.83 -175.83 175.25 -200.54 200.49 -200.19 200.65 -174.7 175.64 -124.11 125.5c-36.27,36.68 -62.26,52.44 -61.81,96.87 0.4,39.69 17.97,51.91 45.24,80.19 1.37,1.42 71.72,73.44 77.62,79.41l108.53 109.59 124.17 124.5 124.52 124.15 109.59 108.5c0.7,0.69 78.69,76.92 79.4,77.61 21.3,20.53 41.91,47.05 80.11,46.12 41.96,-1.03 55.27,-21.27 98.92,-64.44l126.16 -124.77 176.09 -175.31 200.9 -200.7 200.57 -200.97 175.2 -176.15 124.59 -126.1c42.39,-42.9 60.04,-50.62 60.04,-91.37 0,-24.45 -6.37,-60.8 -17.56,-123.77 -0.25,-1.44 -7,-38.86 -29.42,-161.86l-39.27 -215.43c-16.05,-88.07 -15.69,-100.99 -40.1,-125.41 -4.95,-4.94 -9.48,-8.88 -14.21,-12.13zm-199.71 306.78c-24.14,9.19 -49.64,14.1 -76.08,14.1 -14.78,0 -29.91,-1.71 -45.24,-5.1 -2.2,-0.49 -4.39,-1 -6.57,-1.55 20.4,53.95 113.59,57.16 127.89,-7.45zm-116.56 -59.27c3.27,0.97 6.53,1.81 9.76,2.53 9.76,2.16 20.03,3.24 30.72,3.24 20.06,0 39.55,-4.24 58.06,-12.15 -18.18,-17.43 -45.72,-23.69 -68.97,-15 -13.09,4.89 -22.71,12.76 -29.57,21.38z"/>
  </g>
 </g>
</svg>
