<?xml version="1.0" encoding="UTF-8"?>
<!DOCTYPE svg PUBLIC "-//W3C//DTD SVG 1.1//EN" "http://www.w3.org/Graphics/SVG/1.1/DTD/svg11.dtd">
<!-- Creator: CorelDRAW -->
<svg xmlns="http://www.w3.org/2000/svg" xml:space="preserve" width="81.9266mm" height="81.9266mm" version="1.1" style="shape-rendering:geometricPrecision; text-rendering:geometricPrecision; image-rendering:optimizeQuality; fill-rule:evenodd; clip-rule:evenodd"
viewBox="0 0 2849.05 2849.05"
 xmlns:xlink="http://www.w3.org/1999/xlink"
 xmlns:xodm="http://www.corel.com/coreldraw/odm/2003">
 <defs>
  <style type="text/css">
   <![CDATA[
    .fil0 {fill:#FFF385}
    .fil1 {fill:white}
   ]]>
  </style>
 </defs>
 <g id="Capa_x0020_1">
  <metadata id="CorelCorpID_0Corel-Layer"/>
  <g id="_2009590051232">
   <rect class="fil0" width="2849.05" height="2849.05" rx="441.65" ry="441.65"/>
   <path class="fil1" d="M1601.88 2555.97c-40.1,21.27 -95.36,25.68 -240.13,21.35 -27.42,-0.82 -108.43,8.41 -177.33,-75.88 -37.78,-46.22 -38.2,-88.69 -39.44,-109.94 -0.92,-15.88 -3.19,-102.8 0.97,-111.83 1.51,-3.29 23.5,-28.03 32.55,-31.38 2.76,-1.02 5.64,-1.11 6.52,-1.11l236.72 0c199.33,0 254.64,-8.13 274.32,21.37 9.64,14.46 11.76,36.45 11.67,80.62 -0.08,35.01 5.93,115.08 -68.04,179.63 -12.76,11.13 -24.44,20.09 -37.81,27.18zm-2.77 -200.01l-349.11 1.69c-3.94,127.93 102.24,110.94 121.25,111.25 174.04,2.88 222.96,13.56 227.86,-112.94zm-23.48 -351.52c-0.12,2.2 -0.38,4.44 -0.79,6.73 -2.5,14.07 -11.13,28.45 -24.87,36.37 -23.67,13.65 -141.53,7.9 -146.26,5.73 -8.05,-3.71 -30.29,-24.33 -30.45,-50.13 -0.16,-26.7 21.93,-49.52 28.64,-52.81 10.85,-5.31 130.39,-13.62 159.16,15.92 9.44,9.69 15.4,22.81 14.55,38.2zm247.03 -475.2c-0.85,39.72 -80.49,105.22 -100.43,120.46 -58.62,44.83 -110.85,66.53 -153.36,79.95 -63.01,19.9 -158.4,22.74 -167.94,18.33 -28.98,-13.38 -49.01,-70.34 -7.1,-98.11 35.03,-23.21 135.25,3.29 249.62,-81.51 67.24,-49.85 81.29,-94.21 123.48,-94.75 30.45,-0.38 56.38,25.18 55.73,55.62zm91.32 -259.79c0.55,27.5 -3.79,160.86 -66.29,169.52 -30.13,4.17 -53.2,-18.62 -59.84,-36.02 -9.54,-25 8.62,-50.91 11.23,-119.91 0.69,-18.17 1.39,-42.31 20.52,-60.54 33.24,-31.67 93.17,-13.47 94.37,46.95zm-1101.67 -392.38c0.16,27.95 -22.99,51.78 -44.78,54.65 -21.38,2.82 -39.29,-9.73 -92.7,-40.32 -61.18,-35.03 -104.3,-56.19 -113.5,-80.48 -12.65,-33.41 15.47,-70.59 48.15,-70.66 28.6,-0.06 149.98,74.62 172.7,90.52 12.87,9.01 29.98,18.8 30.13,46.29zm1478.5 -84.52c-0.56,30.21 -20.94,42.52 -31.9,49.76 -103.45,68.26 -162.34,97.08 -187.16,87.43 -9.31,-3.62 -30.61,-19.72 -34.24,-42.84 -6.68,-42.55 37.97,-62.12 76.53,-84.5 84.78,-49.2 119.6,-76.99 154.13,-54.17 23.07,15.24 22.71,40.12 22.63,44.32zm-1196.25 -191.05c-0.49,27.32 -31.43,54.43 -61.48,49.33 -21.12,-3.59 -26.86,-9.64 -62.39,-68.56 -49.34,-81.8 -71.61,-117.08 -66.12,-144.84 4.96,-25.05 28.89,-41.38 56.54,-39.92 26.28,1.38 34.74,17.53 38.12,22.35 8.89,12.69 95.86,151.57 95.33,181.65zm853.43 -150.06c-1.31,23.34 -90.15,172.1 -102.14,183.91 -12.92,12.72 -29.28,15.24 -38.25,15.29 -32.46,0.17 -56.58,-33.3 -50.79,-59.9 0.42,-1.91 78.03,-169.27 113.38,-187.99 39.65,-21 79.8,13.27 77.8,48.7zm-469.14 -87.02c0.33,54.48 -1.06,127.35 -4.22,142.97 -4.39,21.67 -13.07,28.21 -16.86,30.99 -19.13,14.02 -65.37,13.91 -80.92,-20.14 -7.73,-16.94 -13.1,-189.67 2.06,-220.43 23.21,-47.09 83.37,-25.98 97.51,4.76 1.42,3.1 2.24,29.16 2.44,61.85zm228.74 1793.58c-0.15,1.29 -0.48,3.04 -1.23,4.97 -22.78,58.09 -146.68,30.49 -147.94,30.03 -19.43,-7.19 -36.16,-29.64 -31.98,-57.34 7.13,-47.16 54.72,-44.77 72.62,-45.78 0,-133.65 -8.06,-218.81 51.38,-293.26 50.81,-63.63 109.66,-70.26 193.88,-170.26 61.4,-72.91 95.79,-152.54 112.71,-225.75 17.76,-76.81 42.74,-271.56 -98.13,-456.32 -66.94,-87.8 -210.56,-213.08 -427.12,-213.96 -267.52,-1.09 -455.56,181.15 -520.5,361.29 -94.98,263.52 39.11,471.59 106.75,547.45 83.36,93.48 148.37,103.94 195.23,176.79 43.19,67.13 29.48,66.43 36.95,273.85 184.37,0 276.01,-15.35 266.14,60.43 -4.38,33.61 -25.85,40.02 -28.32,41.01 -34.26,13.75 -299.62,5.36 -307.61,3.47 -42.12,-9.91 -35.89,-55.09 -36.31,-122.84 -1.28,-205.73 -0.91,-192.68 -97.82,-262.94 -98.08,-71.1 -149.82,-147.99 -162.59,-166.85 -92.58,-136.66 -122.67,-296.94 -110.95,-422.62 27.1,-290.55 254.38,-550.1 569.02,-591.43 347.38,-45.64 549.8,183.56 601.87,249.44 143.3,181.33 136.03,378.19 132.67,453.75 -4.16,93.59 -47.6,258.16 -174.9,393.02 -79.94,84.68 -134.32,99.55 -167.34,140.24 -30.8,37.97 -26.02,76.4 -26.25,172.63 -0.06,22.7 0.07,117.72 -0.09,118.76 -0.01,0.1 0.02,0.94 -0.13,2.23z"/>
  </g>
 </g>
</svg>
