<?xml version="1.0" encoding="UTF-8"?>
<!DOCTYPE svg PUBLIC "-//W3C//DTD SVG 1.1//EN" "http://www.w3.org/Graphics/SVG/1.1/DTD/svg11.dtd">
<!-- Creator: CorelDRAW -->
<svg xmlns="http://www.w3.org/2000/svg" xml:space="preserve" width="81.9266mm" height="81.9266mm" version="1.1" style="shape-rendering:geometricPrecision; text-rendering:geometricPrecision; image-rendering:optimizeQuality; fill-rule:evenodd; clip-rule:evenodd"
viewBox="0 0 10166.29 10166.29"
 xmlns:xlink="http://www.w3.org/1999/xlink"
 xmlns:xodm="http://www.corel.com/coreldraw/odm/2003">
 <defs>
  <style type="text/css">
   <![CDATA[
    .fil0 {fill:#85FFD0}
    .fil1 {fill:white}
   ]]>
  </style>
 </defs>
 <g id="Capa_x0020_1">
  <metadata id="CorelCorpID_0Corel-Layer"/>
  <g id="_2009178707280">
   <rect class="fil0" width="10166.29" height="10166.29" rx="1575.95" ry="1575.95"/>
   <path class="fil1" d="M1244.55 8525.88c-184.19,-48.28 -321.93,-185.73 -369.27,-368.42 -18.27,-70.5 -19.38,-571.25 -1.36,-613.99 14.16,-33.6 58.05,-77.16 89.82,-89.13 13.36,-5.05 89.17,-8.76 178.84,-8.76 85.61,0 157.58,-3.13 159.95,-6.96 2.36,-3.83 -2.59,-25.17 -11.01,-47.4 -34.83,-92.04 -34.55,-70.92 -31.94,-2336.76 2.38,-2062.01 3.26,-2175.14 17.31,-2222.1 60.17,-201.11 211.78,-350.29 406.61,-400.13 60.13,-15.37 93.15,-16.26 610.28,-16.26 532.06,0 546.93,-0.43 555.24,-15.95 4.69,-8.77 8.54,-28.78 8.54,-44.45 0,-15.67 9.12,-63.61 20.28,-106.53 83.15,-320.08 339.01,-555.06 667.27,-612.82 51.78,-9.12 155.32,-11.74 458.54,-11.61 363.15,0.16 394.05,1.28 424.64,15.4 118.61,54.74 127.96,216.31 16.5,285.36l-39.92 24.74 -417.04 4.45c-403.02,4.28 -418.68,5.05 -465.16,22.46 -80.35,30.1 -138.68,67.91 -199.25,129.13 -65.58,66.28 -102.51,129.87 -127.22,219.01 -16.88,60.9 -17.06,74.26 -16.95,1158.41 0.14,1203.91 -2.13,1146.8 49.96,1251.88 53.74,108.38 132.66,185.53 243.35,237.84 89.43,42.29 138.37,47.85 423.9,48.21 235.01,0.3 262.86,1.79 292.72,15.6 38.38,17.77 73.57,52.9 86.04,85.91 5.34,14.13 8.76,103.44 8.76,228.31 0,124.61 3.16,207.07 8.05,210.08 4.44,2.74 151.77,-112.57 327.41,-256.25 175.64,-143.68 331.43,-266.29 346.22,-272.46 22.01,-9.2 166.11,-11.28 796.01,-11.52 817.49,-0.31 813.15,-0.11 912.56,-40.19 137.31,-55.37 246.47,-179.31 294.7,-334.67 14.67,-47.23 15.36,-99.77 15.36,-1154.35 0,-1197.23 2.06,-1140.66 -45.23,-1245.02 -58.25,-128.59 -176.01,-231.27 -317.56,-276.88 -24.2,-7.81 -141.61,-11.88 -441.12,-15.3 -401.53,-4.58 -408.7,-4.95 -442.41,-22.98 -62.22,-33.27 -89.84,-87.53 -83.49,-164.07 4.49,-54.25 35.15,-97.2 89.05,-124.74 36.12,-18.45 38.33,-18.55 421.01,-18.55 409.71,0 466.95,4.19 578.74,42.45 281.18,96.22 491.71,333.23 550.94,620.24 8.55,41.4 15.57,85.06 15.64,97.05 0.07,12.19 5.87,24 13.15,26.79 7.17,2.75 255.18,5.01 551.12,5.01 508.52,0 541.55,0.89 601.64,16.26 194.83,49.83 346.44,199.02 406.61,400.13 14.05,46.96 14.93,160.09 17.31,2222.1 2.61,2265.84 2.89,2244.72 -31.94,2336.76 -8.43,22.24 -13.36,43.57 -11.01,47.4 2.37,3.83 74.13,6.96 159.48,6.96 116.57,0 162.25,2.97 183.65,11.91 31.63,13.22 88.95,71.97 88.95,91.18 0,6.79 3.72,12.35 8.25,12.35 5.34,0 8.25,97.57 8.25,276.21 0,151.92 -2.95,276.22 -6.55,276.22 -3.6,0 -10.75,20.08 -15.9,44.62 -5.15,24.55 -21.03,68.14 -35.28,96.88 -69.83,140.77 -183.06,232.17 -336.12,271.31 -61.11,15.64 -132.85,15.93 -3835.23,15.49 -3657.27,-0.45 -3774.75,-0.93 -3831.71,-15.87zm2742.49 -319.67c-0.06,-3.4 -8.12,-30.32 -17.91,-59.79 -14.82,-44.65 -18.59,-80.42 -22.57,-214.37l-4.78 -160.78 -1376.95 0 -1376.95 0 0.04 152.53c0.04,131.46 2.13,156.75 15.2,183.11 20.16,40.64 51.73,71.54 91.95,89.98 31.54,14.48 90.54,15.14 1362.52,15.31 731.26,0.11 1329.5,-2.61 1329.45,-5.99zm1771.21 -19.05c55.96,-27.97 95.92,-71.65 115.08,-125.85 16.79,-47.43 24.73,-264.3 10.34,-281.66 -9.16,-11.03 -104.48,-12.51 -804.04,-12.51 -699.55,0 -794.88,1.48 -804.03,12.51 -14.39,17.36 -6.45,234.23 10.34,281.66 19.17,54.2 59.12,97.88 115.09,125.85l50.48 25.23 628.12 0 628.13 0 50.49 -25.23zm3106.41 9.67c48.21,-21.89 91.72,-76.27 102.47,-128.06 4.85,-23.4 7.81,-99.92 6.54,-170.03l-2.28 -127.47 -1376.97 0 -1376.95 0 -4.78 160.78c-3.97,133.94 -7.74,169.72 -22.56,214.37 -9.78,29.47 -17.83,56.39 -17.91,59.79 -0.05,3.39 598.2,6.11 1329.45,5.99 1273.77,-0.17 1330.94,-0.82 1362.98,-15.37zm-481.15 -760.54c52.66,-11.19 119,-53.67 145.57,-93.19 44.25,-65.84 41.66,72.95 42.05,-2248.01 0.4,-2417.85 6.4,-2197.86 -62,-2273.93 -21.47,-23.89 -53.74,-48.15 -79.64,-59.84l-43.52 -19.67 -528.43 -2.44c-449.37,-2.1 -529.89,-0.69 -538.18,9.28 -6.97,8.41 -9.12,60.62 -7.52,183.85l2.25 172.1 362.79 4.13c199.52,2.27 370.21,7.46 379.28,11.53 35.45,15.88 71.05,48.68 88.71,81.69l18.46 34.58 0 1855.17c0,1792.46 -0.51,1856.23 -15.35,1886.05 -19.99,40.24 -62.89,77.36 -101.92,88.19 -43.69,12.14 -5889.22,12.14 -5932.91,0 -39.03,-10.83 -81.92,-47.95 -101.93,-88.19 -14.83,-29.82 -15.34,-93.59 -15.34,-1886.05l0 -1855.17 18.48 -34.58c22.1,-41.36 60.23,-71.84 105.2,-84.12 21.41,-5.84 155.16,-9.03 381.33,-9.06l348.37 -0.05 0 -181.23 0 -181.23 -18.68 -4.69c-10.26,-2.58 -252.36,-3.57 -537.99,-2.22l-519.34 2.47 -43.53 19.67c-25.87,11.69 -58.16,35.95 -79.63,59.84 -68.4,76.07 -62.39,-143.92 -62,2273.93 0.4,2320.96 -2.2,2182.16 42.05,2248.01 25.23,37.52 92.16,82.04 139.06,92.47 55.46,12.35 6556.28,13.04 6614.28,0.72zm-549.97 -2344.73l0 -1649.05 -257.47 -2.18 -257.47 -2.17 -4.32 18.66c-2.36,10.26 -5.44,285.82 -6.82,612.34 -2.51,586.31 -2.77,594.47 -21.06,659.61 -24.32,86.65 -88.43,217.51 -139.35,284.46 -46.1,60.59 -138.22,150.06 -194.14,188.54 -110.38,75.94 -256.63,127.55 -399.94,141.14 -51.21,4.85 -378.3,8.45 -780.73,8.59l-692.61 0.22 -412.25 337.95c-226.75,185.87 -428.57,348.95 -448.5,362.42 -45.49,30.72 -84.65,38.29 -132.33,25.54 -48.21,-12.89 -87.16,-43.03 -107.74,-83.36 -15.51,-30.4 -16.4,-48.92 -16.4,-337.58 0,-238.63 -2.26,-305.49 -10.31,-305.8 -5.67,-0.2 -65.97,-0.12 -133.99,0.17 -262.26,1.19 -405.29,-29.29 -556.71,-118.62 -200.05,-118 -328.88,-296.25 -396.82,-549.04 -7.14,-26.58 -11.3,-207.68 -14.69,-639l-4.72 -601.9 -259.72 0 -259.73 0 -2.12 1640.8c-1.15,902.45 -0.35,1645.46 1.81,1651.13 3.13,8.24 558.67,9.9 2756.03,8.25l2752.11 -2.08 0 -1649.05zm-3311.53 -585.95c-84.28,-25.95 -157.52,-98.08 -182.28,-179.56 -8.08,-26.59 -10.42,-210.02 -10.42,-817.58l0 -783.29 23.79 -51.51c59.51,-128.86 206.52,-191.26 331.54,-140.77 27.18,10.98 238.46,129.05 469.56,262.41 231.08,133.35 512.18,295.45 624.67,360.22 243.78,140.4 271.55,158.9 302.56,201.72 54.17,74.78 65.27,192.1 25.82,272.95 -38.62,79.17 -50.13,86.83 -631.84,420.1 -95.24,54.56 -202.84,116.74 -239.12,138.21 -275.05,162.69 -538.76,308.61 -575.38,318.35 -53.38,14.22 -89.74,13.9 -138.89,-1.25zm397.8 -512.89c133.25,-76.8 327.61,-189.05 431.92,-249.45 104.3,-60.38 232,-134.2 283.77,-164.06 51.77,-29.83 95.28,-57.96 96.67,-62.49 1.39,-4.54 -74.37,-52.54 -168.34,-106.68 -245.28,-141.3 -558.8,-322.42 -737.69,-426.19 -85.01,-49.31 -158.29,-89.66 -162.86,-89.66 -5.47,0 -8.28,211.33 -8.28,623.4 0,523.67 1.8,622.71 11.27,619.07 6.19,-2.38 120.29,-67.16 253.54,-143.96zm101.75 -2062.08c-107.75,-65.71 -113.55,-211.13 -11.16,-278.89 77.57,-51.34 190.84,-20.33 234.56,64.19 25.26,48.88 11.53,138.25 -28.22,183.53 -40.04,45.62 -144.21,62.26 -195.18,31.17z"/>
  </g>
 </g>
</svg>
